<svg width="24" height="24" viewBox="0 0 24 24" fill="none" xmlns="http://www.w3.org/2000/svg">
<path d="M13.9771 2.99999C14.0618 2.99983 14.1457 3.01637 14.2239 3.04865C14.3022 3.08094 14.3733 3.12833 14.4333 3.18812L20.8118 9.56668C20.9326 9.6875 21.0005 9.85135 21.0005 10.0222C21.0005 10.193 20.9326 10.3569 20.8118 10.4777C20.1933 11.0962 19.4305 11.2354 18.8751 11.2354C18.647 11.2354 18.4434 11.2122 18.2823 11.1852L14.2439 15.2236C14.3502 15.652 14.4192 16.0887 14.45 16.529C14.5093 17.4336 14.4088 18.7028 13.5222 19.5894C13.4014 19.7102 13.2376 19.778 13.0667 19.778C12.8959 19.778 12.732 19.7102 12.6112 19.5894L8.96577 15.9452L4.86545 20.0455C4.61417 20.2968 3.29465 21.2079 3.04337 20.9566C2.7921 20.7053 3.70314 19.3845 3.95441 19.1345L8.05473 15.0342L4.41058 11.3888C4.28979 11.2679 4.22193 11.1041 4.22193 10.9332C4.22193 10.7624 4.28979 10.5985 4.41058 10.4777C5.29713 9.59116 6.5664 9.48936 7.47099 9.54993C7.91125 9.58077 8.34801 9.64976 8.77634 9.7561L12.8148 5.71893C12.7811 5.52269 12.7639 5.32399 12.7633 5.12488C12.7633 4.57079 12.9024 3.80794 13.5222 3.18812C13.643 3.06768 13.8066 3.00002 13.9771 2.99999V2.99999Z" fill="#B2B2B2"/>
</svg>
